<svg width="19" height="16" viewBox="0 0 19 16" fill="none" xmlns="http://www.w3.org/2000/svg">
<rect width="19" height="16" fill="#1E1E1E"/>
<g id="Desktop - 2">
<rect width="1441" height="943" transform="translate(-597 -242)" fill="#F7F7F7"/>
</g>
<g id="Group 1000003761">
<g id="Rectangle 17" filter="url(#filter0_d_0_1)">
<rect x="-290" y="-24" width="327" height="94" rx="20" fill="white"/>
<rect x="-289.5" y="-23.5" width="326" height="93" rx="19.5" stroke="#24B6E9" stroke-opacity="0.35"/>
</g>
<path id="v" d="M18 8L18.4301 8.61442C18.6306 8.47408 18.75 8.24474 18.75 8C18.75 7.75526 18.6306 7.52592 18.4301 7.38558L18 8ZM8 1L8.4301 0.385576C8.20099 0.225204 7.90169 0.205618 7.65364 0.334766C7.40559 0.463914 7.25 0.720343 7.25 1L8 1ZM8 15H7.25C7.25 15.2797 7.40559 15.5361 7.65364 15.6652C7.90169 15.7944 8.20099 15.7748 8.4301 15.6144L8 15ZM8.75 10.1328C8.75 9.7186 8.41421 9.38281 8 9.38281C7.58579 9.38281 7.25 9.7186 7.25 10.1328H8.75ZM11 8L11.4301 8.61442C11.6306 8.47408 11.75 8.24474 11.75 8C11.75 7.75526 11.6306 7.52592 11.4301 7.38558L11 8ZM1 1L1.4301 0.385576C1.20099 0.225204 0.901692 0.205618 0.653642 0.334766C0.405593 0.463914 0.25 0.720343 0.25 1L1 1ZM1 15H0.25C0.25 15.2797 0.405593 15.5361 0.653642 15.6652C0.901692 15.7944 1.20099 15.7748 1.4301 15.6144L1 15ZM18.4301 7.38558L8.4301 0.385576L7.5699 1.61442L17.5699 8.61442L18.4301 7.38558ZM8.4301 15.6144L18.4301 8.61442L17.5699 7.38558L7.5699 14.3856L8.4301 15.6144ZM7.25 1V5.6875H8.75V1H7.25ZM7.25 10.1328V15H8.75V10.1328H7.25ZM11.4301 7.38558L1.4301 0.385576L0.569903 1.61442L10.5699 8.61442L11.4301 7.38558ZM0.25 1V15H1.75V1H0.25ZM1.4301 15.6144L11.4301 8.61442L10.5699 7.38558L0.569903 14.3856L1.4301 15.6144Z" fill="black"/>
</g>
<defs>
<filter id="filter0_d_0_1" x="-335" y="-65" width="417" height="184" filterUnits="userSpaceOnUse" color-interpolation-filters="sRGB">
<feFlood flood-opacity="0" result="BackgroundImageFix"/>
<feColorMatrix in="SourceAlpha" type="matrix" values="0 0 0 0 0 0 0 0 0 0 0 0 0 0 0 0 0 0 127 0" result="hardAlpha"/>
<feOffset dy="4"/>
<feGaussianBlur stdDeviation="22.5"/>
<feComposite in2="hardAlpha" operator="out"/>
<feColorMatrix type="matrix" values="0 0 0 0 0.101961 0 0 0 0 0.164706 0 0 0 0 0.380392 0 0 0 0.06 0"/>
<feBlend mode="normal" in2="BackgroundImageFix" result="effect1_dropShadow_0_1"/>
<feBlend mode="normal" in="SourceGraphic" in2="effect1_dropShadow_0_1" result="shape"/>
</filter>
</defs>
</svg>
