<svg xmlns="http://www.w3.org/2000/svg" width="20" height="20" viewBox="0 0 22 22" fill="none">
    <path
        d="M10.9997 20.1668C16.0623 20.1668 20.1663 16.0628 20.1663 11.0002C20.1663 5.93755 16.0623 1.8335 10.9997 1.8335C5.93706 1.8335 1.83301 5.93755 1.83301 11.0002C1.83301 16.0628 5.93706 20.1668 10.9997 20.1668Z"
        fill="black" fill-opacity="0.16" />
    <path
        d="M7.8103 10.5229C7.5467 10.2593 7.11931 10.2593 6.85571 10.5229C6.59211 10.7865 6.59211 11.2139 6.85571 11.4775L7.8103 10.5229ZM10.9997 14.6668L10.5224 15.1441C10.786 15.4077 11.2134 15.4077 11.477 15.1441L10.9997 14.6668ZM15.1436 11.4775C15.4072 11.2139 15.4072 10.7865 15.1436 10.5229C14.88 10.2593 14.4526 10.2593 14.189 10.5229L15.1436 11.4775ZM11.6747 7.3335C11.6747 6.9607 11.3725 6.6585 10.9997 6.6585C10.6269 6.6585 10.3247 6.9607 10.3247 7.3335H11.6747ZM19.4913 11.0002C19.4913 15.69 15.6895 19.4918 10.9997 19.4918V20.8418C16.4351 20.8418 20.8413 16.4356 20.8413 11.0002H19.4913ZM10.9997 19.4918C6.30986 19.4918 2.50801 15.69 2.50801 11.0002H1.15801C1.15801 16.4356 5.56427 20.8418 10.9997 20.8418V19.4918ZM2.50801 11.0002C2.50801 6.31034 6.30986 2.5085 10.9997 2.5085V1.1585C5.56427 1.1585 1.15801 5.56476 1.15801 11.0002H2.50801ZM10.9997 2.5085C15.6895 2.5085 19.4913 6.31034 19.4913 11.0002H20.8413C20.8413 5.56476 16.4351 1.1585 10.9997 1.1585V2.5085ZM6.85571 11.4775L10.5224 15.1441L11.477 14.1895L7.8103 10.5229L6.85571 11.4775ZM11.477 15.1441L15.1436 11.4775L14.189 10.5229L10.5224 14.1895L11.477 15.1441ZM11.6747 14.6668V7.3335H10.3247V14.6668H11.6747Z"
        fill="#575656" />
</svg>