<svg xmlns="http://www.w3.org/2000/svg" width="12" height="12" viewBox="0 0 12 12" fill="none">
    <path
        d="M0.480774 7.12542C0.480478 6.59439 0.615592 6.07206 0.873347 5.60778C1.1311 5.1435 1.50298 4.75261 1.95385 4.47206C2.07285 3.54421 2.52587 2.69153 3.22814 2.07357C3.93041 1.45562 4.83379 1.11475 5.76924 1.11475C6.70468 1.11475 7.60806 1.45562 8.31033 2.07357C9.0126 2.69153 9.46562 3.54421 9.58462 4.47206C10.1439 4.81998 10.5789 5.33571 10.8275 5.9456C11.0762 6.5555 11.1258 7.22837 10.9693 7.86814C10.8128 8.50791 10.4581 9.08186 9.95594 9.50805C9.45377 9.93424 8.82979 10.1909 8.17308 10.2413L3.36539 10.2504C1.75193 10.1187 0.480774 8.77061 0.480774 7.12542ZM8.1 9.28263C8.55473 9.24767 8.98678 9.0699 9.33443 8.77472C9.68208 8.47954 9.92756 8.08204 10.0358 7.639C10.144 7.19596 10.1095 6.73005 9.93713 6.30782C9.76475 5.88558 9.46334 5.52862 9.07597 5.28792L8.68799 5.0461L8.63029 4.59321C8.54043 3.89787 8.20043 3.25905 7.67384 2.79614C7.14725 2.33323 6.47012 2.07792 5.769 2.07792C5.06787 2.07792 4.39074 2.33323 3.86415 2.79614C3.33756 3.25905 2.99756 3.89787 2.9077 4.59321L2.85 5.0461L2.46299 5.28792C2.07563 5.52859 1.77423 5.88551 1.60183 6.30771C1.42943 6.7299 1.39486 7.19577 1.50304 7.63879C1.61122 8.08181 1.85663 8.47931 2.20421 8.77453C2.5518 9.06975 2.98378 9.24758 3.43847 9.28263L3.52164 9.28888H8.01683L8.1 9.28263ZM6.25 5.9235H7.69231L5.76924 8.32734L3.84616 5.9235H5.28847V4.00042H6.25V5.9235Z"
        fill="#015DB8" />
</svg>