<svg xmlns="http://www.w3.org/2000/svg" width="11" height="12" viewBox="0 0 11 12" fill="none">
    <path
        d="M4.03846 1.875V3.125H1.15385V10H7.5V6.875H8.65385V10.625C8.65385 10.7908 8.59306 10.9497 8.48487 11.0669C8.37668 11.1842 8.22993 11.25 8.07692 11.25H0.576923C0.423914 11.25 0.277171 11.1842 0.168977 11.0669C0.0607828 10.9497 0 10.7908 0 10.625V2.5C0 2.33424 0.0607828 2.17527 0.168977 2.05806C0.277171 1.94085 0.423914 1.875 0.576923 1.875H4.03846ZM10.3846 0V5H9.23077V2.13313L4.73481 7.00437L3.91904 6.12063L8.41442 1.25H5.76923V0H10.3846Z"
        fill="#1976D2" />
</svg>