<svg width="23" height="20" viewBox="0 0 23 20" fill="none" xmlns="http://www.w3.org/2000/svg">
    <path id="Vector"
        d="M11.0067 10.586L15.2497 14.828L13.8347 16.243L12.0067 14.415V20H10.0067V14.413L8.17873 16.243L6.76373 14.828L11.0067 10.586ZM11.0067 2.2216e-08C12.7237 8.17698e-05 14.3808 0.631114 15.6629 1.77312C16.9451 2.91512 17.7628 4.48846 17.9607 6.194C19.205 6.53332 20.2905 7.2991 21.0274 8.35753C21.7643 9.41595 22.1059 10.6997 21.9923 11.9844C21.8788 13.2691 21.3174 14.473 20.4063 15.3858C19.4952 16.2986 18.2922 16.8622 17.0077 16.978V14.964C17.4679 14.8983 17.9104 14.7416 18.3093 14.503C18.7083 14.2644 19.0557 13.9487 19.3313 13.5744C19.6069 13.2001 19.8052 12.7746 19.9146 12.3228C20.024 11.8711 20.0423 11.402 19.9684 10.9431C19.8946 10.4841 19.7301 10.0445 19.4844 9.64985C19.2388 9.25519 18.9171 8.91342 18.5379 8.64447C18.1588 8.37552 17.7299 8.18479 17.2762 8.08341C16.8226 7.98203 16.3533 7.97203 15.8957 8.054C16.0523 7.32489 16.0439 6.56997 15.8709 5.84455C15.698 5.11913 15.365 4.44158 14.8963 3.86153C14.4276 3.28147 13.8351 2.81361 13.1622 2.49219C12.4893 2.17078 11.753 2.00397 11.0072 2.00397C10.2615 2.00397 9.52518 2.17078 8.85226 2.49219C8.17933 2.81361 7.58682 3.28147 7.11813 3.86153C6.64944 4.44158 6.31644 5.11913 6.14351 5.84455C5.97059 6.56997 5.96212 7.32489 6.11873 8.054C5.20639 7.88267 4.26335 8.08079 3.49707 8.60476C2.7308 9.12874 2.20406 9.93565 2.03273 10.848C1.8614 11.7603 2.05952 12.7034 2.58349 13.4697C3.10747 14.2359 3.91439 14.7627 4.82673 14.934L5.00673 14.964V16.978C3.72218 16.8623 2.51914 16.2989 1.60786 15.3862C0.696592 14.4735 0.135057 13.2696 0.0214042 11.9848C-0.0922487 10.7001 0.249209 9.41628 0.986099 8.35777C1.72299 7.29926 2.80844 6.53339 4.05273 6.194C4.25044 4.48838 5.06814 2.91491 6.35031 1.77287C7.63248 0.63082 9.28969 -0.000136703 11.0067 2.2216e-08Z"
        fill="#09121F" />
</svg>